<svg xmlns="http://www.w3.org/2000/svg" xmlns:xlink="http://www.w3.org/1999/xlink" viewBox="0 0 3822.88 946"><defs><style>.cls-1{fill:url(#linear-gradient);}.cls-2{fill:#0e081a;}</style><linearGradient id="linear-gradient" x1="951.78" y1="1013.17" x2="952.52" y2="1012.38" gradientTransform="matrix(946, 0, 0, -946, -900261.57, 958562.49)" gradientUnits="userSpaceOnUse"><stop offset="0" stop-color="#4d2fe5"/><stop offset="0.53" stop-color="#d51fd5"/><stop offset="1" stop-color="#fb767c"/></linearGradient></defs><g id="Layer_2" data-name="Layer 2"><g id="Layer_1-2" data-name="Layer 1"><path id="합치기_1" data-name="합치기 1" class="cls-1" d="M0,473C0,211.77,211.77,0,473,0S946,211.77,946,473,734.23,946,473,946,0,734.23,0,473Zm44,0c0,236.55,192.45,429,429,429S902,709.55,902,473,709.55,44,473,44,44,236.45,44,473ZM258,754.79c-31.37-.59-53-21.59-61.23-38.34s-8.4-38.5-.52-55S355.6,339.17,360.59,328.66s4.47-9.94,4.54-21.65,0-135.8,0-135.8-12.06,0-19.3,0c-17.5,0-25.28-12.71-25.37-23-.09-10,6.85-23.5,24.48-23.54,15,0,41.28,0,66.71,0l-.2,71.19H465v23.28H411.46V243H465v23.17H411.46V326c0,6-.83,6.19-3.82,12.51S244.85,668.24,239.81,679s5.11,28.89,20.16,29.17S667,708,686.12,708s24.36-22.75,20.6-30.13S539.68,341,536.84,334.71s-2.48-5.75-2.34-16,0-194,0-194l68.26,0a22.82,22.82,0,0,1,.43,45.64h-.43c-6.25.13-21.91,0-21.91,0s0,135.64,0,143.29S583,323,588,333.1,737.11,633.64,746.91,653.3s13.23,47.92-4.3,71.41S704.37,753.82,687.89,754c-13.42.11-269,1-380.59,1C281.79,754.94,263.83,754.9,258,754.79ZM456,639a16,16,0,1,1,16,16A16,16,0,0,1,456,639Zm47.59-3.35A4.76,4.76,0,1,1,507,637,4.7,4.7,0,0,1,503.59,635.65Zm-69.65,0a4.76,4.76,0,1,1,3.35,1.38,4.74,4.74,0,0,1-3.35-1.38Zm90.64-12.6a16,16,0,1,1,22.63-.71l-.35.36a16.2,16.2,0,0,1-11.46,4.79,15.22,15.22,0,0,1-10.82-4.44Zm-126.44-.35a15.51,15.51,0,1,1,22.28.35,15.17,15.17,0,0,1-10.82,4.44A16.18,16.18,0,0,1,398.14,622.7Zm69.45-9.38a4.75,4.75,0,1,1,4.74,4.75,4.74,4.74,0,0,1-4.74-4.75Zm0-13.37a4.75,4.75,0,1,1,4.74,4.74,4.74,4.74,0,0,1-4.74-4.74Zm47.24-2.57a4.73,4.73,0,1,1,3.35,1.39,4.73,4.73,0,0,1-3.35-1.39Zm-91.37,0a4.74,4.74,0,1,1,3.36,1.39,4.74,4.74,0,0,1-3.36-1.39Zm44.13-10.85a4.75,4.75,0,1,1,4.74,4.75,4.74,4.74,0,0,1-4.74-4.75Zm37.78,1.39a4.74,4.74,0,1,1,3.35,1.39,4.75,4.75,0,0,1-3.35-1.39Zm-72.45,0a4.74,4.74,0,1,1,3.35,1.39,4.75,4.75,0,0,1-3.35-1.39Zm120-1.81a4.74,4.74,0,1,1,3.35,1.39,4.74,4.74,0,0,1-3.35-1.39Zm-169.22,0a4.74,4.74,0,1,1,3.35,1.39,4.73,4.73,0,0,1-3.35-1.39Zm112.16-7.68a4.74,4.74,0,1,1,3.35,1.39,4.74,4.74,0,0,1-3.35-1.39Zm-53.47,0a4.74,4.74,0,1,1,3.35,1.39,4.74,4.74,0,0,1-3.35-1.39ZM444,548.5A28.5,28.5,0,1,1,472.5,577,28.5,28.5,0,0,1,444,548.5Zm103-.5a16,16,0,1,1,16,16A16,16,0,0,1,547,548Zm-181,0a16,16,0,1,1,16,16A16,16,0,0,1,366,548Zm166.36.34a4.75,4.75,0,1,1,4.74,4.75,4.74,4.74,0,0,1-4.74-4.75Zm-13.37,0a4.74,4.74,0,1,1,4.74,4.75,4.74,4.74,0,0,1-4.74-4.75Zm-13.42,0a4.74,4.74,0,1,1,4.74,4.75,4.74,4.74,0,0,1-4.74-4.75Zm-75.63,0a4.75,4.75,0,1,1,4.75,4.75,4.75,4.75,0,0,1-4.75-4.75Zm-13.41,0a4.74,4.74,0,1,1,4.74,4.75,4.74,4.74,0,0,1-4.74-4.75Zm-13.38,0a4.75,4.75,0,1,1,4.75,4.75,4.75,4.75,0,0,1-4.75-4.75ZM495.88,525a4.74,4.74,0,1,1,3.36,1.39,4.75,4.75,0,0,1-3.36-1.39Zm-53.47,0a4.74,4.74,0,1,1,3.35,1.39,4.75,4.75,0,0,1-3.35-1.39Zm110.53-8.31a4.76,4.76,0,1,1,3.35,1.38A4.73,4.73,0,0,1,552.94,516.65Zm-168.22,0a4.76,4.76,0,1,1,3.35,1.38A4.7,4.7,0,0,1,384.72,516.65Zm120.65-1.18a4.74,4.74,0,1,1,3.36,1.39,4.75,4.75,0,0,1-3.36-1.39Zm-72.45,0a4.74,4.74,0,1,1,3.36,1.39,4.75,4.75,0,0,1-3.36-1.39Zm34.84-5.32a4.74,4.74,0,1,1,4.74,4.75,4.74,4.74,0,0,1-4.74-4.75ZM514.83,506a4.73,4.73,0,1,1,3.35,1.39,4.73,4.73,0,0,1-3.35-1.39Zm-91.37,0a4.74,4.74,0,1,1,3.36,1.39,4.75,4.75,0,0,1-3.36-1.39Zm44.3-9.29a4.74,4.74,0,1,1,4.74,4.75h0a4.74,4.74,0,0,1-4.74-4.74Zm-70-.47a16,16,0,1,1,22.63-.72c-.12.12-.24.25-.36.36a16.18,16.18,0,0,1-11.46,4.8,15.21,15.21,0,0,1-10.81-4.44Zm127.15-.36a15.5,15.5,0,1,1,22.27.36,15.21,15.21,0,0,1-10.81,4.44,16.18,16.18,0,0,1-11.46-4.8Zm-57.19-12.54a4.75,4.75,0,1,1,4.75,4.75h0a4.75,4.75,0,0,1-4.74-4.75ZM456,457a16,16,0,1,1,16,16A16,16,0,0,1,456,457Zm47.56,10.43a4.74,4.74,0,1,1,3.36,1.39,4.75,4.75,0,0,1-3.36-1.39Zm-69.62-.37a4.73,4.73,0,1,1,3.35,1.39,4.75,4.75,0,0,1-3.35-1.39Z"/><path id="패스_3" data-name="패스 3" class="cls-2" d="M1133.2,678H1271c150.64,0,212.24-90.72,212.24-207.76,0-51-12.32-96.88-42.56-135-49.28-66.64-124.32-71.68-175.84-71.68H1133.2Zm83.44-341H1276c50.4,0,78.4,19,95.76,41.44,19.6,25.76,28,60.48,28,93,0,74.48-34.72,133.28-124.32,133.28h-58.8Zm449.68,341h232.4V604.64h-149V504.4h146.16V431H1749.76V337h149V263.6h-232.4Zm388.08,0h93.52l96.32-159,100.24,159h95.2L2296.32,461.84l128.8-198.24H2331L2247.6,399.12,2163,263.6H2068.4l129.92,196.56Zm555,0h219.52V604.64H2692.8v-341h-83.44Zm471-81.2h163.52l30.24,81.2h91.28L3201.28,263.6h-73.36l-168,414.4h90.72Zm141.12-66.64H3102.16l58.8-168ZM3532.24,678h127.68c58.8,0,85.12-3.92,118.16-29.12,29.12-20.16,44.8-55.44,44.8-93,0-17.92-2.8-76.16-72.24-99.68,31.36-17.36,51-47,51-85.12,0-34.16-12.32-64.4-40.32-82.88-21.28-16.24-52.64-24.64-93-24.64H3532.24Zm83.44-341h45.92c15.12,0,27.44,1.68,37,6.16,11.76,5,23,17.92,23,39.2,0,19.6-7.28,33-23.52,41.44-10.64,4.48-24.08,5.6-35.84,5.6h-46.48Zm0,162.4h56c14.56,0,28.56,0,42,5.6,16.8,7.28,29.12,21.84,29.12,45.92,0,26.32-12.88,40.32-29.68,47.6-12.88,5.6-28,6.16-38.64,6.16h-58.8Z"/></g></g></svg>